# Blender 5.0.1
# www.blender.org
mtllib XYSclae10_SchoolMap.mtl
o 立方體
v 6.961755 2.130287 -0.049599
v -31.170574 2.129222 -0.049599
v -31.447163 -42.744606 -0.049599
v 6.958966 2.136772 -0.049599
v 6.961755 2.130287 0.050401
v -30.836948 25.985703 -0.049599
v 6.958966 19.136774 -0.049599
v 7.009105 -49.320580 -0.056814
v 6.961755 7.130287 -0.049599
v -31.170574 2.129222 0.050401
v -31.170277 2.128145 -0.049599
v 6.958966 2.136772 0.050401
v 6.961755 7.130287 0.050401
v -30.836948 25.985703 0.050401
v 16.961754 2.130287 -0.049599
v 6.958966 19.136774 0.050401
v 11.961756 2.130287 -0.049599
v -31.446390 -42.745438 0.050401
v 11.961756 2.130287 0.050401
v 7.009875 -49.321407 0.043186
v 7.057829 6.154835 -0.049599
v -31.169506 2.127314 0.050401
v 7.804408 4.352436 -0.049599
v 16.962526 2.129456 0.050401
v 7.342358 5.216869 -0.049599
v 9.183905 2.972939 -0.049599
v 10.986304 2.226361 -0.049599
v 10.048338 2.510890 -0.049599
v 8.426222 3.594753 -0.049599
v 7.057829 6.154835 0.050401
v 8.426222 3.594753 0.050401
v 7.804408 4.352436 0.050401
v 7.342358 5.216869 0.050401
v 9.183905 2.972939 0.050401
v 10.986304 2.226361 0.050401
v 10.048338 2.510890 0.050401
vn -1.0000 -0.0000 -0.0000
vn -0.0000 -1.0000 -0.0000
vn -0.0000 -0.0000 -1.0000
vn -0.0000 -0.0000 1.0000
vn 0.0980 0.9952 -0.0000
vn 0.2903 0.9569 -0.0000
vn 0.4714 0.8819 -0.0000
vn 0.6344 0.7730 -0.0000
vn 0.7730 0.6344 -0.0000
vn 0.8819 0.4714 -0.0000
vn 0.9569 0.2903 -0.0000
vn 0.9952 0.0980 -0.0000
vn -0.0001 0.0001 -1.0000
vn 0.0001 -0.0001 1.0000
vn -1.0000 0.0062 0.0078
vn -0.0000 1.0000 0.0083
vn -0.1685 -0.9857 -0.0068
vn 0.9818 -0.1899 -0.0091
vn 1.0000 -0.0000 -0.0000
vn -0.9999 0.0140 -0.0000
vn 0.1783 0.9840 -0.0000
vn 0.0002 -1.0000 -0.0000
vt 0.375000 0.000000
vt 0.625000 0.000000
vt 0.625000 0.250000
vt 0.375000 0.250000
vt 0.375000 0.750000
vt 0.625000 0.750000
vt 0.625000 1.000000
vt 0.375000 1.000000
vt 0.326227 0.745196
vt 0.125000 0.750000
vt 0.125000 0.500000
vt 0.129804 0.548773
vt 0.144030 0.595671
vt 0.167133 0.638893
vt 0.198223 0.676777
vt 0.236107 0.707867
vt 0.279329 0.730970
vt 0.870196 0.548773
vt 0.875000 0.500000
vt 0.875000 0.750000
vt 0.673773 0.745196
vt 0.720671 0.730970
vt 0.763893 0.707867
vt 0.801777 0.676777
vt 0.832867 0.638893
vt 0.855970 0.595671
vt 0.500000 0.775000
vt 0.500000 0.725000
vt 0.468750 0.725000
vt 0.468750 0.775000
vt 0.437500 0.725000
vt 0.437500 0.775000
vt 0.406250 0.725000
vt 0.406250 0.775000
vt 0.375000 0.725000
vt 0.375000 0.775000
vt 0.343750 0.725000
vt 0.343750 0.775000
vt 0.312500 0.725000
vt 0.312500 0.775000
vt 0.281250 0.725000
vt 0.281250 0.775000
vt 0.250000 0.725000
vt 0.250000 0.775000
vt 0.000000 0.000000
vt 0.000000 1.000000
vt 1.000000 1.000000
vt 1.000000 0.000000
s 0
f 1/1/1 5/2/1 13/3/1 9/4/1
f 17/5/2 19/6/2 5/7/2 1/8/2
f 27/9/3 17/5/3 1/10/3 9/11/3 21/12/3 25/13/3 23/14/3 29/15/3 26/16/3 28/17/3
f 30/18/4 13/19/4 5/20/4 19/6/4 35/21/4 36/22/4 34/23/4 31/24/4 32/25/4 33/26/4
f 19/27/5 17/28/5 27/29/5 35/30/5
f 27/29/6 28/31/6 36/32/6 35/30/6
f 28/31/7 26/33/7 34/34/7 36/32/7
f 26/33/8 29/35/8 31/36/8 34/34/8
f 31/36/9 29/35/9 23/37/9 32/38/9
f 32/38/10 23/37/10 25/39/10 33/40/10
f 33/40/11 25/39/11 21/41/11 30/42/11
f 30/42/12 21/41/12 9/43/12 13/44/12
f 3/45/13 11/46/13 15/47/13 8/48/13
f 18/45/14 20/48/14 24/47/14 22/46/14
f 11/46/15 3/45/15 18/45/15 22/46/15
f 15/47/16 11/46/16 22/46/16 24/47/16
f 3/45/17 8/48/17 20/48/17 18/45/17
f 8/48/18 15/47/18 24/47/18 20/48/18
f 2/45/3 6/46/3 7/47/3 4/48/3
f 10/45/4 12/48/4 16/47/4 14/46/4
f 4/48/19 7/47/19 16/47/19 12/48/19
f 6/46/20 2/45/20 10/45/20 14/46/20
f 7/47/21 6/46/21 14/46/21 16/47/21
f 2/45/22 4/48/22 12/48/22 10/45/22
