# Blender 5.0.1
# www.blender.org
mtllib YSclae6_SchoolMap.mtl
o 立方體
v 4.177053 1.065143 -0.049599
v -18.702343 1.064611 -0.049599
v -18.868298 -21.372303 -0.049599
v 4.175379 1.068386 -0.049599
v 4.177053 1.065143 0.050401
v -18.502171 12.992851 -0.049599
v 4.175379 9.568387 -0.049599
v 4.205463 -24.660290 -0.056814
v 4.177053 3.565143 -0.049599
v -18.702343 1.064611 0.050401
v -18.702168 1.064072 -0.049599
v 4.175379 1.068386 0.050401
v 4.177053 3.565143 0.050401
v -18.502171 12.992851 0.050401
v 10.177052 1.065143 -0.049599
v 4.175379 9.568387 0.050401
v 7.177053 1.065143 -0.049599
v -18.867834 -21.372719 0.050401
v 7.177053 1.065143 0.050401
v 4.205925 -24.660704 0.043186
v 4.234698 3.077418 -0.049599
v -18.701702 1.063657 0.050401
v 4.682644 2.176218 -0.049599
v 10.177516 1.064728 0.050401
v 4.405415 2.608435 -0.049599
v 5.510343 1.486470 -0.049599
v 6.591783 1.113181 -0.049599
v 6.029003 1.255445 -0.049599
v 5.055733 1.797376 -0.049599
v 4.234698 3.077418 0.050401
v 5.055733 1.797376 0.050401
v 4.682644 2.176218 0.050401
v 4.405415 2.608435 0.050401
v 5.510343 1.486470 0.050401
v 6.591783 1.113181 0.050401
v 6.029003 1.255445 0.050401
vn -1.0000 -0.0000 -0.0000
vn -0.0000 -1.0000 -0.0000
vn -0.0000 -0.0000 -1.0000
vn -0.0000 -0.0000 1.0000
vn 0.0818 0.9966 -0.0000
vn 0.2451 0.9695 -0.0000
vn 0.4069 0.9135 -0.0000
vn 0.5645 0.8254 -0.0000
vn 0.7125 0.7017 -0.0000
vn 0.8417 0.5399 -0.0000
vn 0.9397 0.3421 -0.0000
vn 0.9931 0.1174 -0.0000
vn -0.0001 0.0002 -1.0000
vn 0.0001 -0.0002 1.0000
vn -1.0000 0.0074 0.0047
vn -0.0000 1.0000 0.0042
vn -0.1411 -0.9900 -0.0034
vn 0.9741 -0.2261 -0.0054
vn 1.0000 -0.0000 -0.0000
vn -0.9999 0.0168 -0.0000
vn 0.1493 0.9888 -0.0000
vn 0.0002 -1.0000 -0.0000
vt 0.375000 0.000000
vt 0.625000 0.000000
vt 0.625000 0.250000
vt 0.375000 0.250000
vt 0.375000 0.750000
vt 0.625000 0.750000
vt 0.625000 1.000000
vt 0.375000 1.000000
vt 0.326227 0.745196
vt 0.125000 0.750000
vt 0.125000 0.500000
vt 0.129804 0.548773
vt 0.144030 0.595671
vt 0.167133 0.638893
vt 0.198223 0.676777
vt 0.236107 0.707867
vt 0.279329 0.730970
vt 0.870196 0.548773
vt 0.875000 0.500000
vt 0.875000 0.750000
vt 0.673773 0.745196
vt 0.720671 0.730970
vt 0.763893 0.707867
vt 0.801777 0.676777
vt 0.832867 0.638893
vt 0.855970 0.595671
vt 0.500000 0.775000
vt 0.500000 0.725000
vt 0.468750 0.725000
vt 0.468750 0.775000
vt 0.437500 0.725000
vt 0.437500 0.775000
vt 0.406250 0.725000
vt 0.406250 0.775000
vt 0.375000 0.725000
vt 0.375000 0.775000
vt 0.343750 0.725000
vt 0.343750 0.775000
vt 0.312500 0.725000
vt 0.312500 0.775000
vt 0.281250 0.725000
vt 0.281250 0.775000
vt 0.250000 0.725000
vt 0.250000 0.775000
vt 0.000000 0.000000
vt 0.000000 1.000000
vt 1.000000 1.000000
vt 1.000000 0.000000
s 0
f 1/1/1 5/2/1 13/3/1 9/4/1
f 17/5/2 19/6/2 5/7/2 1/8/2
f 27/9/3 17/5/3 1/10/3 9/11/3 21/12/3 25/13/3 23/14/3 29/15/3 26/16/3 28/17/3
f 30/18/4 13/19/4 5/20/4 19/6/4 35/21/4 36/22/4 34/23/4 31/24/4 32/25/4 33/26/4
f 19/27/5 17/28/5 27/29/5 35/30/5
f 27/29/6 28/31/6 36/32/6 35/30/6
f 28/31/7 26/33/7 34/34/7 36/32/7
f 26/33/8 29/35/8 31/36/8 34/34/8
f 31/36/9 29/35/9 23/37/9 32/38/9
f 32/38/10 23/37/10 25/39/10 33/40/10
f 33/40/11 25/39/11 21/41/11 30/42/11
f 30/42/12 21/41/12 9/43/12 13/44/12
f 3/45/13 11/46/13 15/47/13 8/48/13
f 18/45/14 20/48/14 24/47/14 22/46/14
f 11/46/15 3/45/15 18/45/15 22/46/15
f 15/47/16 11/46/16 22/46/16 24/47/16
f 3/45/17 8/48/17 20/48/17 18/45/17
f 8/48/18 15/47/18 24/47/18 20/48/18
f 2/45/3 6/46/3 7/47/3 4/48/3
f 10/45/4 12/48/4 16/47/4 14/46/4
f 4/48/19 7/47/19 16/47/19 12/48/19
f 6/46/20 2/45/20 10/45/20 14/46/20
f 7/47/21 6/46/21 14/46/21 16/47/21
f 2/45/22 4/48/22 12/48/22 10/45/22
